<svg width="32" height="32" viewBox="0 0 32 32" fill="none" xmlns="http://www.w3.org/2000/svg">
<path d="M13.5383 0H1.23087C0.550999 0 0 0.550999 0 1.23087V13.5383C0 14.2181 0.550999 14.7691 1.23087 14.7691H13.5383C14.2181 14.7691 14.7691 14.2181 14.7691 13.5383V1.23087C14.7691 0.550999 14.2181 0 13.5383 0Z" fill="#FF8A00"/>
<path d="M30.7692 0H18.4618C17.782 0 17.231 0.550999 17.231 1.23087V13.5383C17.231 14.2181 17.782 14.7691 18.4618 14.7691H30.7692C31.4491 14.7691 32.0001 14.2181 32.0001 13.5383V1.23087C32.0001 0.550999 31.4491 0 30.7692 0ZM29.5383 12.3074H19.6927V2.46174H29.5383V12.3074Z" fill="#FF8A00"/>
<path d="M13.5383 17.231H1.23087C0.550999 17.231 0 17.782 0 18.4618V30.7692C0 31.4491 0.550999 32.0001 1.23087 32.0001H13.5383C14.2181 32.0001 14.7691 31.4491 14.7691 30.7692V18.4618C14.7691 17.7806 14.2181 17.231 13.5383 17.231ZM5.81244 29.5383C6.02416 29.1754 6.15435 28.7585 6.15435 28.3075C6.15435 26.9477 5.05235 25.8457 3.69261 25.8457C3.24155 25.8457 2.82469 25.9759 2.46174 26.1876V23.0434C2.82469 23.2551 3.24155 23.3853 3.69261 23.3853C5.05235 23.3853 6.15435 22.2833 6.15435 20.9236C6.15435 20.4725 6.02416 20.0556 5.81244 19.6927H8.95669C8.74497 20.0556 8.61478 20.4725 8.61478 20.9236C8.61478 22.2833 9.71677 23.3853 11.0765 23.3853C11.5276 23.3853 11.9444 23.2551 12.3074 23.0434V26.1876C11.9444 25.9759 11.5276 25.8457 11.0765 25.8457C9.71677 25.8457 8.61478 26.9477 8.61478 28.3075C8.61478 28.7585 8.74497 29.1754 8.95669 29.5383H5.81244Z" fill="#FF8A00"/>
<path d="M30.7692 17.231H18.4618C17.782 17.231 17.231 17.782 17.231 18.4618V24.6149V30.7679C17.231 31.4478 17.782 31.9988 18.4618 31.9988H24.6149H30.7679C31.4478 31.9988 31.9988 31.4478 31.9988 30.7679V18.4605C32.0001 17.7806 31.4491 17.231 30.7692 17.231ZM19.6927 25.1251L25.1251 19.6927H27.7986L19.6927 27.7986C19.6927 27.7986 19.6927 25.1251 19.6927 25.1251ZM19.6927 19.6927H21.6442L19.6927 21.6442V19.6927ZM29.5384 21.4325V24.1046L24.1059 29.5383H21.4325L29.5384 21.4325ZM29.5384 29.5383H27.5855L29.5384 27.5855V29.5383Z" fill="#FF8A00"/>
<path d="M7.38508 27.0766C8.74466 27.0766 9.84682 25.9744 9.84682 24.6148C9.84682 23.2552 8.74466 22.1531 7.38508 22.1531C6.0255 22.1531 4.92334 23.2552 4.92334 24.6148C4.92334 25.9744 6.0255 27.0766 7.38508 27.0766Z" fill="#FF8A00"/>
</svg>
